<mxfile host="app.diagrams.net" modified="2024-02-28T04:30:43.960Z" agent="Mozilla/5.0 (Windows NT 10.0; Win64; x64) AppleWebKit/537.36 (KHTML, like Gecko) Chrome/122.0.0.0 Safari/537.36 Edg/122.0.0.0" etag="McBn3ZtHp4PpNHVNP47D" version="23.1.7" type="github">
  <diagram id="C5RBs43oDa-KdzZeNtuy" name="Page-1">
    <mxGraphModel dx="1249" dy="2435" grid="1" gridSize="10" guides="1" tooltips="1" connect="1" arrows="1" fold="1" page="1" pageScale="1" pageWidth="827" pageHeight="1169" background="none" math="0" shadow="0">
      <root>
        <mxCell id="WIyWlLk6GJQsqaUBKTNV-0" />
        <mxCell id="WIyWlLk6GJQsqaUBKTNV-1" parent="WIyWlLk6GJQsqaUBKTNV-0" />
        <mxCell id="BUGnZ8fRKYAwxfEeawZM-7" style="edgeStyle=orthogonalEdgeStyle;rounded=0;orthogonalLoop=1;jettySize=auto;html=1;exitX=0.5;exitY=1;exitDx=0;exitDy=0;exitPerimeter=0;" edge="1" parent="WIyWlLk6GJQsqaUBKTNV-1" source="BUGnZ8fRKYAwxfEeawZM-0" target="BUGnZ8fRKYAwxfEeawZM-6">
          <mxGeometry relative="1" as="geometry" />
        </mxCell>
        <mxCell id="BUGnZ8fRKYAwxfEeawZM-10" style="edgeStyle=orthogonalEdgeStyle;rounded=0;orthogonalLoop=1;jettySize=auto;html=1;" edge="1" parent="WIyWlLk6GJQsqaUBKTNV-1" source="BUGnZ8fRKYAwxfEeawZM-0" target="BUGnZ8fRKYAwxfEeawZM-5">
          <mxGeometry relative="1" as="geometry" />
        </mxCell>
        <mxCell id="BUGnZ8fRKYAwxfEeawZM-0" value="" style="strokeWidth=2;html=1;shape=mxgraph.flowchart.start_1;whiteSpace=wrap;" vertex="1" parent="WIyWlLk6GJQsqaUBKTNV-1">
          <mxGeometry x="530" width="100" height="60" as="geometry" />
        </mxCell>
        <mxCell id="BUGnZ8fRKYAwxfEeawZM-1" value="" style="strokeWidth=2;html=1;shape=mxgraph.flowchart.start_1;whiteSpace=wrap;" vertex="1" parent="WIyWlLk6GJQsqaUBKTNV-1">
          <mxGeometry x="274" y="1200" width="100" height="60" as="geometry" />
        </mxCell>
        <mxCell id="BUGnZ8fRKYAwxfEeawZM-4" style="edgeStyle=orthogonalEdgeStyle;rounded=0;orthogonalLoop=1;jettySize=auto;html=1;exitX=0.5;exitY=1;exitDx=0;exitDy=0;" edge="1" parent="WIyWlLk6GJQsqaUBKTNV-1">
          <mxGeometry relative="1" as="geometry">
            <mxPoint x="464" y="160" as="sourcePoint" />
            <mxPoint x="464" y="160" as="targetPoint" />
          </mxGeometry>
        </mxCell>
        <mxCell id="BUGnZ8fRKYAwxfEeawZM-42" style="edgeStyle=orthogonalEdgeStyle;rounded=0;orthogonalLoop=1;jettySize=auto;html=1;" edge="1" parent="WIyWlLk6GJQsqaUBKTNV-1" source="BUGnZ8fRKYAwxfEeawZM-5" target="BUGnZ8fRKYAwxfEeawZM-41">
          <mxGeometry relative="1" as="geometry" />
        </mxCell>
        <mxCell id="BUGnZ8fRKYAwxfEeawZM-5" value="" style="rounded=0;whiteSpace=wrap;html=1;" vertex="1" parent="WIyWlLk6GJQsqaUBKTNV-1">
          <mxGeometry x="520" y="130" width="120" height="60" as="geometry" />
        </mxCell>
        <mxCell id="BUGnZ8fRKYAwxfEeawZM-13" style="edgeStyle=orthogonalEdgeStyle;rounded=0;orthogonalLoop=1;jettySize=auto;html=1;" edge="1" parent="WIyWlLk6GJQsqaUBKTNV-1" source="BUGnZ8fRKYAwxfEeawZM-6" target="BUGnZ8fRKYAwxfEeawZM-8">
          <mxGeometry relative="1" as="geometry" />
        </mxCell>
        <mxCell id="BUGnZ8fRKYAwxfEeawZM-14" style="edgeStyle=orthogonalEdgeStyle;rounded=0;orthogonalLoop=1;jettySize=auto;html=1;exitX=0.5;exitY=1;exitDx=0;exitDy=0;" edge="1" parent="WIyWlLk6GJQsqaUBKTNV-1" source="BUGnZ8fRKYAwxfEeawZM-6" target="BUGnZ8fRKYAwxfEeawZM-12">
          <mxGeometry relative="1" as="geometry" />
        </mxCell>
        <mxCell id="BUGnZ8fRKYAwxfEeawZM-6" value="" style="rounded=0;whiteSpace=wrap;html=1;" vertex="1" parent="WIyWlLk6GJQsqaUBKTNV-1">
          <mxGeometry x="120" y="130" width="120" height="60" as="geometry" />
        </mxCell>
        <mxCell id="BUGnZ8fRKYAwxfEeawZM-15" style="edgeStyle=orthogonalEdgeStyle;rounded=0;orthogonalLoop=1;jettySize=auto;html=1;" edge="1" parent="WIyWlLk6GJQsqaUBKTNV-1" source="BUGnZ8fRKYAwxfEeawZM-8" target="BUGnZ8fRKYAwxfEeawZM-12">
          <mxGeometry relative="1" as="geometry" />
        </mxCell>
        <mxCell id="BUGnZ8fRKYAwxfEeawZM-22" style="edgeStyle=orthogonalEdgeStyle;rounded=0;orthogonalLoop=1;jettySize=auto;html=1;entryX=0;entryY=0.5;entryDx=0;entryDy=0;" edge="1" parent="WIyWlLk6GJQsqaUBKTNV-1" source="BUGnZ8fRKYAwxfEeawZM-8" target="BUGnZ8fRKYAwxfEeawZM-20">
          <mxGeometry relative="1" as="geometry" />
        </mxCell>
        <mxCell id="BUGnZ8fRKYAwxfEeawZM-23" style="edgeStyle=orthogonalEdgeStyle;rounded=0;orthogonalLoop=1;jettySize=auto;html=1;entryX=0;entryY=0.5;entryDx=0;entryDy=0;exitX=0.5;exitY=1;exitDx=0;exitDy=0;exitPerimeter=0;" edge="1" parent="WIyWlLk6GJQsqaUBKTNV-1" source="BUGnZ8fRKYAwxfEeawZM-8" target="BUGnZ8fRKYAwxfEeawZM-17">
          <mxGeometry relative="1" as="geometry" />
        </mxCell>
        <mxCell id="BUGnZ8fRKYAwxfEeawZM-24" style="edgeStyle=orthogonalEdgeStyle;rounded=0;orthogonalLoop=1;jettySize=auto;html=1;entryX=0;entryY=0.5;entryDx=0;entryDy=0;exitX=0.5;exitY=1;exitDx=0;exitDy=0;exitPerimeter=0;" edge="1" parent="WIyWlLk6GJQsqaUBKTNV-1" source="BUGnZ8fRKYAwxfEeawZM-8" target="BUGnZ8fRKYAwxfEeawZM-18">
          <mxGeometry relative="1" as="geometry" />
        </mxCell>
        <mxCell id="BUGnZ8fRKYAwxfEeawZM-27" style="edgeStyle=orthogonalEdgeStyle;rounded=0;orthogonalLoop=1;jettySize=auto;html=1;entryX=0;entryY=0.5;entryDx=0;entryDy=0;exitX=0.5;exitY=1;exitDx=0;exitDy=0;exitPerimeter=0;" edge="1" parent="WIyWlLk6GJQsqaUBKTNV-1" source="BUGnZ8fRKYAwxfEeawZM-8" target="BUGnZ8fRKYAwxfEeawZM-26">
          <mxGeometry relative="1" as="geometry" />
        </mxCell>
        <mxCell id="BUGnZ8fRKYAwxfEeawZM-38" style="edgeStyle=orthogonalEdgeStyle;rounded=0;orthogonalLoop=1;jettySize=auto;html=1;entryX=0;entryY=0.5;entryDx=0;entryDy=0;exitX=0.5;exitY=1;exitDx=0;exitDy=0;exitPerimeter=0;" edge="1" parent="WIyWlLk6GJQsqaUBKTNV-1" source="BUGnZ8fRKYAwxfEeawZM-8" target="BUGnZ8fRKYAwxfEeawZM-37">
          <mxGeometry relative="1" as="geometry">
            <Array as="points">
              <mxPoint x="180" y="970" />
            </Array>
          </mxGeometry>
        </mxCell>
        <mxCell id="BUGnZ8fRKYAwxfEeawZM-8" value="" style="strokeWidth=2;html=1;shape=mxgraph.flowchart.decision;whiteSpace=wrap;" vertex="1" parent="WIyWlLk6GJQsqaUBKTNV-1">
          <mxGeometry x="120" y="280" width="120" height="80" as="geometry" />
        </mxCell>
        <mxCell id="BUGnZ8fRKYAwxfEeawZM-12" value="" style="strokeWidth=2;html=1;shape=mxgraph.flowchart.decision;whiteSpace=wrap;" vertex="1" parent="WIyWlLk6GJQsqaUBKTNV-1">
          <mxGeometry x="340" y="280" width="120" height="80" as="geometry" />
        </mxCell>
        <mxCell id="BUGnZ8fRKYAwxfEeawZM-17" value="" style="rounded=1;whiteSpace=wrap;html=1;" vertex="1" parent="WIyWlLk6GJQsqaUBKTNV-1">
          <mxGeometry x="264" y="390" width="120" height="60" as="geometry" />
        </mxCell>
        <mxCell id="BUGnZ8fRKYAwxfEeawZM-18" value="" style="rounded=1;whiteSpace=wrap;html=1;" vertex="1" parent="WIyWlLk6GJQsqaUBKTNV-1">
          <mxGeometry x="264" y="510" width="120" height="60" as="geometry" />
        </mxCell>
        <mxCell id="BUGnZ8fRKYAwxfEeawZM-21" style="edgeStyle=orthogonalEdgeStyle;rounded=0;orthogonalLoop=1;jettySize=auto;html=1;" edge="1" parent="WIyWlLk6GJQsqaUBKTNV-1" source="BUGnZ8fRKYAwxfEeawZM-20" target="BUGnZ8fRKYAwxfEeawZM-1">
          <mxGeometry relative="1" as="geometry" />
        </mxCell>
        <mxCell id="BUGnZ8fRKYAwxfEeawZM-20" value="" style="rounded=1;whiteSpace=wrap;html=1;" vertex="1" parent="WIyWlLk6GJQsqaUBKTNV-1">
          <mxGeometry x="234" y="1070" width="180" height="60" as="geometry" />
        </mxCell>
        <mxCell id="BUGnZ8fRKYAwxfEeawZM-32" style="edgeStyle=orthogonalEdgeStyle;rounded=0;orthogonalLoop=1;jettySize=auto;html=1;" edge="1" parent="WIyWlLk6GJQsqaUBKTNV-1" source="BUGnZ8fRKYAwxfEeawZM-26" target="BUGnZ8fRKYAwxfEeawZM-28">
          <mxGeometry relative="1" as="geometry" />
        </mxCell>
        <mxCell id="BUGnZ8fRKYAwxfEeawZM-26" value="" style="rounded=1;whiteSpace=wrap;html=1;" vertex="1" parent="WIyWlLk6GJQsqaUBKTNV-1">
          <mxGeometry x="264" y="590" width="120" height="50" as="geometry" />
        </mxCell>
        <mxCell id="BUGnZ8fRKYAwxfEeawZM-30" style="edgeStyle=orthogonalEdgeStyle;rounded=0;orthogonalLoop=1;jettySize=auto;html=1;entryX=1;entryY=0.5;entryDx=0;entryDy=0;exitX=1;exitY=0.5;exitDx=0;exitDy=0;" edge="1" parent="WIyWlLk6GJQsqaUBKTNV-1" source="BUGnZ8fRKYAwxfEeawZM-28" target="BUGnZ8fRKYAwxfEeawZM-26">
          <mxGeometry relative="1" as="geometry">
            <Array as="points">
              <mxPoint x="400" y="740" />
              <mxPoint x="400" y="620" />
            </Array>
          </mxGeometry>
        </mxCell>
        <mxCell id="BUGnZ8fRKYAwxfEeawZM-35" style="edgeStyle=orthogonalEdgeStyle;rounded=0;orthogonalLoop=1;jettySize=auto;html=1;entryX=0.5;entryY=0;entryDx=0;entryDy=0;" edge="1" parent="WIyWlLk6GJQsqaUBKTNV-1" source="BUGnZ8fRKYAwxfEeawZM-28" target="BUGnZ8fRKYAwxfEeawZM-34">
          <mxGeometry relative="1" as="geometry" />
        </mxCell>
        <mxCell id="BUGnZ8fRKYAwxfEeawZM-36" style="edgeStyle=orthogonalEdgeStyle;rounded=0;orthogonalLoop=1;jettySize=auto;html=1;entryX=0.5;entryY=0;entryDx=0;entryDy=0;exitX=0.5;exitY=1;exitDx=0;exitDy=0;" edge="1" parent="WIyWlLk6GJQsqaUBKTNV-1" source="BUGnZ8fRKYAwxfEeawZM-28" target="BUGnZ8fRKYAwxfEeawZM-33">
          <mxGeometry relative="1" as="geometry" />
        </mxCell>
        <mxCell id="BUGnZ8fRKYAwxfEeawZM-28" value="" style="rhombus;whiteSpace=wrap;html=1;" vertex="1" parent="WIyWlLk6GJQsqaUBKTNV-1">
          <mxGeometry x="259" y="700" width="130" height="80" as="geometry" />
        </mxCell>
        <mxCell id="BUGnZ8fRKYAwxfEeawZM-40" style="edgeStyle=orthogonalEdgeStyle;rounded=0;orthogonalLoop=1;jettySize=auto;html=1;" edge="1" parent="WIyWlLk6GJQsqaUBKTNV-1" source="BUGnZ8fRKYAwxfEeawZM-33" target="BUGnZ8fRKYAwxfEeawZM-37">
          <mxGeometry relative="1" as="geometry" />
        </mxCell>
        <mxCell id="BUGnZ8fRKYAwxfEeawZM-33" value="" style="rounded=1;whiteSpace=wrap;html=1;" vertex="1" parent="WIyWlLk6GJQsqaUBKTNV-1">
          <mxGeometry x="400" y="840" width="120" height="60" as="geometry" />
        </mxCell>
        <mxCell id="BUGnZ8fRKYAwxfEeawZM-39" style="edgeStyle=orthogonalEdgeStyle;rounded=0;orthogonalLoop=1;jettySize=auto;html=1;entryX=0.5;entryY=0;entryDx=0;entryDy=0;" edge="1" parent="WIyWlLk6GJQsqaUBKTNV-1" source="BUGnZ8fRKYAwxfEeawZM-34" target="BUGnZ8fRKYAwxfEeawZM-37">
          <mxGeometry relative="1" as="geometry" />
        </mxCell>
        <mxCell id="BUGnZ8fRKYAwxfEeawZM-34" value="" style="rounded=1;whiteSpace=wrap;html=1;" vertex="1" parent="WIyWlLk6GJQsqaUBKTNV-1">
          <mxGeometry x="200" y="840" width="120" height="60" as="geometry" />
        </mxCell>
        <mxCell id="BUGnZ8fRKYAwxfEeawZM-37" value="" style="rounded=1;whiteSpace=wrap;html=1;" vertex="1" parent="WIyWlLk6GJQsqaUBKTNV-1">
          <mxGeometry x="244" y="960" width="160" height="60" as="geometry" />
        </mxCell>
        <mxCell id="BUGnZ8fRKYAwxfEeawZM-47" style="edgeStyle=orthogonalEdgeStyle;rounded=0;orthogonalLoop=1;jettySize=auto;html=1;entryX=1;entryY=0.5;entryDx=0;entryDy=0;exitX=0.5;exitY=1;exitDx=0;exitDy=0;" edge="1" parent="WIyWlLk6GJQsqaUBKTNV-1" source="BUGnZ8fRKYAwxfEeawZM-41" target="BUGnZ8fRKYAwxfEeawZM-20">
          <mxGeometry relative="1" as="geometry">
            <Array as="points">
              <mxPoint x="580" y="1100" />
            </Array>
          </mxGeometry>
        </mxCell>
        <mxCell id="BUGnZ8fRKYAwxfEeawZM-53" style="edgeStyle=orthogonalEdgeStyle;rounded=0;orthogonalLoop=1;jettySize=auto;html=1;entryX=0;entryY=0.5;entryDx=0;entryDy=0;" edge="1" parent="WIyWlLk6GJQsqaUBKTNV-1" source="BUGnZ8fRKYAwxfEeawZM-41" target="BUGnZ8fRKYAwxfEeawZM-48">
          <mxGeometry relative="1" as="geometry">
            <mxPoint x="600" y="440" as="targetPoint" />
            <Array as="points">
              <mxPoint x="580" y="410" />
            </Array>
          </mxGeometry>
        </mxCell>
        <mxCell id="BUGnZ8fRKYAwxfEeawZM-54" style="edgeStyle=orthogonalEdgeStyle;rounded=0;orthogonalLoop=1;jettySize=auto;html=1;entryX=0;entryY=0.5;entryDx=0;entryDy=0;exitX=0.5;exitY=1;exitDx=0;exitDy=0;" edge="1" parent="WIyWlLk6GJQsqaUBKTNV-1" source="BUGnZ8fRKYAwxfEeawZM-41" target="BUGnZ8fRKYAwxfEeawZM-49">
          <mxGeometry relative="1" as="geometry" />
        </mxCell>
        <mxCell id="BUGnZ8fRKYAwxfEeawZM-55" style="edgeStyle=orthogonalEdgeStyle;rounded=0;orthogonalLoop=1;jettySize=auto;html=1;entryX=0;entryY=0.5;entryDx=0;entryDy=0;" edge="1" parent="WIyWlLk6GJQsqaUBKTNV-1" source="BUGnZ8fRKYAwxfEeawZM-41" target="BUGnZ8fRKYAwxfEeawZM-50">
          <mxGeometry relative="1" as="geometry" />
        </mxCell>
        <mxCell id="BUGnZ8fRKYAwxfEeawZM-56" style="edgeStyle=orthogonalEdgeStyle;rounded=0;orthogonalLoop=1;jettySize=auto;html=1;entryX=0;entryY=0.5;entryDx=0;entryDy=0;" edge="1" parent="WIyWlLk6GJQsqaUBKTNV-1" source="BUGnZ8fRKYAwxfEeawZM-41" target="BUGnZ8fRKYAwxfEeawZM-51">
          <mxGeometry relative="1" as="geometry" />
        </mxCell>
        <mxCell id="BUGnZ8fRKYAwxfEeawZM-57" style="edgeStyle=orthogonalEdgeStyle;rounded=0;orthogonalLoop=1;jettySize=auto;html=1;entryX=0;entryY=0.5;entryDx=0;entryDy=0;" edge="1" parent="WIyWlLk6GJQsqaUBKTNV-1" source="BUGnZ8fRKYAwxfEeawZM-41" target="BUGnZ8fRKYAwxfEeawZM-52">
          <mxGeometry relative="1" as="geometry" />
        </mxCell>
        <mxCell id="BUGnZ8fRKYAwxfEeawZM-41" value="" style="rhombus;whiteSpace=wrap;html=1;" vertex="1" parent="WIyWlLk6GJQsqaUBKTNV-1">
          <mxGeometry x="525" y="280" width="110" height="80" as="geometry" />
        </mxCell>
        <mxCell id="BUGnZ8fRKYAwxfEeawZM-46" value="" style="endArrow=classic;html=1;rounded=0;exitX=1;exitY=0.5;exitDx=0;exitDy=0;" edge="1" parent="WIyWlLk6GJQsqaUBKTNV-1" source="BUGnZ8fRKYAwxfEeawZM-41">
          <mxGeometry width="50" height="50" relative="1" as="geometry">
            <mxPoint x="650" y="410" as="sourcePoint" />
            <mxPoint x="580" y="240" as="targetPoint" />
            <Array as="points">
              <mxPoint x="710" y="320" />
              <mxPoint x="710" y="240" />
            </Array>
          </mxGeometry>
        </mxCell>
        <mxCell id="BUGnZ8fRKYAwxfEeawZM-48" value="" style="rounded=1;whiteSpace=wrap;html=1;" vertex="1" parent="WIyWlLk6GJQsqaUBKTNV-1">
          <mxGeometry x="630" y="380" width="120" height="60" as="geometry" />
        </mxCell>
        <mxCell id="BUGnZ8fRKYAwxfEeawZM-49" value="" style="rounded=1;whiteSpace=wrap;html=1;" vertex="1" parent="WIyWlLk6GJQsqaUBKTNV-1">
          <mxGeometry x="630" y="480" width="120" height="60" as="geometry" />
        </mxCell>
        <mxCell id="BUGnZ8fRKYAwxfEeawZM-61" style="edgeStyle=orthogonalEdgeStyle;rounded=0;orthogonalLoop=1;jettySize=auto;html=1;" edge="1" parent="WIyWlLk6GJQsqaUBKTNV-1" source="BUGnZ8fRKYAwxfEeawZM-50" target="BUGnZ8fRKYAwxfEeawZM-58">
          <mxGeometry relative="1" as="geometry" />
        </mxCell>
        <mxCell id="BUGnZ8fRKYAwxfEeawZM-50" value="" style="rounded=1;whiteSpace=wrap;html=1;" vertex="1" parent="WIyWlLk6GJQsqaUBKTNV-1">
          <mxGeometry x="630" y="570" width="120" height="60" as="geometry" />
        </mxCell>
        <mxCell id="BUGnZ8fRKYAwxfEeawZM-62" style="edgeStyle=orthogonalEdgeStyle;rounded=0;orthogonalLoop=1;jettySize=auto;html=1;" edge="1" parent="WIyWlLk6GJQsqaUBKTNV-1" source="BUGnZ8fRKYAwxfEeawZM-51" target="BUGnZ8fRKYAwxfEeawZM-58">
          <mxGeometry relative="1" as="geometry" />
        </mxCell>
        <mxCell id="BUGnZ8fRKYAwxfEeawZM-51" value="" style="rounded=1;whiteSpace=wrap;html=1;" vertex="1" parent="WIyWlLk6GJQsqaUBKTNV-1">
          <mxGeometry x="630" y="660" width="120" height="60" as="geometry" />
        </mxCell>
        <mxCell id="BUGnZ8fRKYAwxfEeawZM-52" value="" style="rounded=1;whiteSpace=wrap;html=1;" vertex="1" parent="WIyWlLk6GJQsqaUBKTNV-1">
          <mxGeometry x="630" y="760" width="120" height="60" as="geometry" />
        </mxCell>
        <mxCell id="BUGnZ8fRKYAwxfEeawZM-58" value="" style="strokeWidth=2;html=1;shape=mxgraph.flowchart.document2;whiteSpace=wrap;size=0.25;" vertex="1" parent="WIyWlLk6GJQsqaUBKTNV-1">
          <mxGeometry x="790" y="840" width="100" height="60" as="geometry" />
        </mxCell>
        <mxCell id="BUGnZ8fRKYAwxfEeawZM-59" style="edgeStyle=orthogonalEdgeStyle;rounded=0;orthogonalLoop=1;jettySize=auto;html=1;entryX=0.5;entryY=0;entryDx=0;entryDy=0;entryPerimeter=0;" edge="1" parent="WIyWlLk6GJQsqaUBKTNV-1" source="BUGnZ8fRKYAwxfEeawZM-48" target="BUGnZ8fRKYAwxfEeawZM-58">
          <mxGeometry relative="1" as="geometry" />
        </mxCell>
        <mxCell id="BUGnZ8fRKYAwxfEeawZM-60" style="edgeStyle=orthogonalEdgeStyle;rounded=0;orthogonalLoop=1;jettySize=auto;html=1;entryX=0.5;entryY=0;entryDx=0;entryDy=0;entryPerimeter=0;" edge="1" parent="WIyWlLk6GJQsqaUBKTNV-1" source="BUGnZ8fRKYAwxfEeawZM-49" target="BUGnZ8fRKYAwxfEeawZM-58">
          <mxGeometry relative="1" as="geometry" />
        </mxCell>
        <mxCell id="BUGnZ8fRKYAwxfEeawZM-63" style="edgeStyle=orthogonalEdgeStyle;rounded=0;orthogonalLoop=1;jettySize=auto;html=1;entryX=0.5;entryY=0;entryDx=0;entryDy=0;entryPerimeter=0;" edge="1" parent="WIyWlLk6GJQsqaUBKTNV-1" source="BUGnZ8fRKYAwxfEeawZM-52" target="BUGnZ8fRKYAwxfEeawZM-58">
          <mxGeometry relative="1" as="geometry" />
        </mxCell>
      </root>
    </mxGraphModel>
  </diagram>
</mxfile>
